<svg width="420" height="430" viewBox="0 0 420 430" fill="#3F20FF" xmlns="http://www.w3.org/2000/svg">
<path d="M337.757 215.217V215.217ZM337.757 215.217L338.06 216.5L338.949 217.802L340.404 219.138L342.41 220.526L344.956 221.983L348.031 223.524L351.621 225.164L355.71 226.919L360.271 228.8L365.268 230.82L370.646 232.987L376.33 235.303L382.223 237.765L388.195 240.363L394.092 243.077L399.73 245.875L404.905 248.716L409.403 251.547L413.016 254.308L415.557 256.935L416.886 259.365L416.919 261.543L415.645 263.424L413.121 264.984L409.47 266.212L404.864 267.12L399.507 267.732L393.613 268.086L387.391 268.225L381.031 268.199L374.698 268.052L368.527 267.832L362.622 267.577L357.061 267.324L351.898 267.103L347.169 266.94L342.894 266.856L339.082 266.871L335.734 267.001L332.846 267.258L330.41 267.657L328.418 268.208L326.861 268.924L325.73 269.815L325.018 270.894L324.717 272.174L324.822 273.666L325.33 275.385L326.236 277.346L327.537 279.561L329.23 282.046L331.309 284.813L333.763 287.874L336.579 291.238L339.734 294.906L343.195 298.876L346.918 303.133L350.84 307.65L354.881 312.385L358.937 317.276L362.884 322.241L366.58 327.175L369.865 331.954L372.573 336.44L374.544 340.489L375.638 343.958L375.749 346.725L374.82 348.697L372.849 349.823L369.892 350.097L366.054 349.559L361.482 348.29L356.344 346.4L350.82 344.02L345.08 341.283L339.28 338.323L333.553 335.258L328.006 332.196L322.72 329.224L317.754 326.415L313.149 323.825L308.927 321.499L305.102 319.471L301.678 317.766L298.651 316.408L296.019 315.415L293.776 314.806L291.915 314.6L290.435 314.822L289.335 315.497L288.607 316.647L288.225 318.265L288.162 320.348L288.397 322.894L288.911 325.904L289.684 329.38L290.695 333.321L291.922 337.721L293.337 342.566L294.907 347.829L296.589 353.471L298.332 359.428L300.074 365.616L301.741 371.922L303.25 378.204L304.509 384.294L305.423 390.001L305.902 395.124L305.865 399.465L305.254 402.844L304.035 405.124L302.209 406.219L299.811 406.108L296.903 404.835L293.574 402.505L289.926 399.268L286.066 395.304L282.097 390.805L278.112 385.961L274.189 380.946L270.389 375.911L266.758 370.985L263.325 366.268L260.109 361.837L257.117 357.749L254.35 354.045L251.801 350.751L249.462 347.884L247.319 345.452L245.36 343.461L243.569 341.911L241.932 340.804L240.433 340.139L239.06 339.917L237.797 340.14L236.631 340.81L235.549 341.932L234.537 343.511L233.582 345.553L232.671 348.066L231.79 351.053L230.924 354.518L230.06 358.46L229.181 362.869L228.27 367.729L227.312 373.008L226.287 378.656L225.179 384.603L223.971 390.752L222.647 396.978L221.196 403.125L219.61 409.009L217.889 414.425L216.04 419.155L214.079 422.985L212.03 425.726L209.926 427.231L207.804 427.413L205.704 426.255L203.664 423.814L201.717 420.214L199.889 415.629L198.196 410.268L196.648 404.351L195.243 398.095L193.973 391.697L192.826 385.331L191.785 379.137L190.832 373.229L189.947 367.69L189.11 362.583L188.302 357.949L187.504 353.816L186.697 350.202L185.864 347.117L184.987 344.57L184.048 342.567L183.027 341.118L181.905 340.236L180.659 339.94L179.271 340.225L177.73 341.066L176.021 342.443L174.133 344.337L172.052 346.735L169.766 349.623L167.262 352.982L164.532 356.79L161.571 361.013L158.38 365.606L154.966 370.505L151.348 375.627L147.558 380.863L143.643 386.08L139.663 391.118L135.698 395.795L131.841 399.917L128.194 403.287L124.864 405.726L121.948 407.084L119.533 407.264L117.677 406.227L116.411 404.003L115.732 400.685L115.606 396.417L115.975 391.379L116.76 385.771L117.873 379.792L119.225 373.628L120.729 367.442L122.307 361.371L123.89 355.521L125.421 349.975L126.852 344.789L128.146 339.999L129.275 335.628L130.214 331.685L130.946 328.171L131.457 325.08L131.736 322.405L131.771 320.135L131.555 318.258L131.077 316.763L130.328 315.639L129.298 314.877L127.976 314.467L126.35 314.403L124.407 314.677L122.134 315.283L119.518 316.214L116.547 317.463L113.21 319.02L109.499 320.871L105.413 322.997L100.959 325.373L96.1518 327.962L91.0238 330.717L85.6237 333.577L80.0218 336.465L74.313 339.286L68.6177 341.931L63.0808 344.277L57.867 346.193L53.1526 347.551L49.1125 348.234L45.9051 348.151L43.6561 347.243L42.4448 345.497L42.2947 342.945L43.1713 339.661L44.9871 335.756L47.6125 331.364L50.8904 326.63L54.6514 321.694L58.7275 316.689L62.9624 311.727L67.2186 306.901L71.3798 302.281L75.352 297.917L79.0614 293.844L82.4518 290.081L85.4811 286.636L88.1181 283.512L90.3393 280.703L92.1257 278.202L93.4604 275.999L94.3261 274.084L94.7031 272.449L94.5672 271.087L93.8908 269.991L92.6738 269.14L90.9288 268.51L88.6632 268.078L85.8811 267.824L82.5854 267.729L78.7802 267.773L74.4732 267.937L69.6791 268.198L64.4234 268.531L58.7462 268.906L52.7069 269.291L46.3891 269.645L39.9036 269.925L33.3914 270.082L27.0233 270.065L20.9954 269.822L15.5209 269.307L10.8162 268.479L7.0832 267.313L4.49002 265.796L3.15235 263.94L3.12023 261.771L4.37227 259.336L6.81887 256.692L10.3136 253.904L14.6703 251.038L19.682 248.157L25.1392 245.313L30.8442 242.549L36.621 239.897L42.3211 237.379L47.8245 235.005L53.0386 232.779L57.895 230.699L62.3459 228.757L66.3597 226.944L69.9174 225.246L73.0089 223.651L75.6307 222.144L77.783 220.71L79.4681 219.335L80.6894 218.005L81.4499 216.705L81.7517 215.421L81.5957 214.14L80.9816 212.847L79.9074 211.528L78.3703 210.169L76.3672 208.755L73.8951 207.273L70.953 205.707L67.5431 204.044L63.673 202.269L59.3586 200.369L54.627 198.334L49.5205 196.155L44.1004 193.828L38.4513 191.355L32.6841 188.744L26.9384 186.013L21.3818 183.19L16.2057 180.315L11.6175 177.438L7.82656 174.619L5.02792 171.922L3.38265 169.413L3 167.154L3.92387 165.194L6.12677 163.567L9.51275 162.289L13.9286 161.356L19.1811 160.745L25.0563 160.42L31.3384 160.337L37.8246 160.444L44.3353 160.691L50.72 161.026L56.8583 161.405L62.6584 161.787L68.0536 162.137L72.998 162.424L77.4622 162.621L81.4284 162.706L84.8869 162.657L87.8329 162.456L90.2634 162.083L92.1749 161.518L93.5611 160.74L94.4113 159.725L94.7168 158.449L94.5003 156.901L93.7879 155.077L92.6006 152.967L90.9563 150.562L88.8717 147.851L86.3649 144.828L83.4576 141.486L80.1782 137.824L76.5651 133.848L72.6695 129.574L68.5593 125.031L64.3218 120.263L60.0662 115.336L55.9233 110.333L52.0441 105.362L48.5938 100.548L45.7426 96.0314L43.6533 91.9563L42.4657 88.4614L42.2823 85.666L43.1554 83.6575L45.0799 82.4822L47.9937 82.1405L51.7845 82.5881L56.3027 83.743L61.3767 85.4949L66.8293 87.7178L72.491 90.2811L78.2097 93.0588L83.8572 95.9364L89.3303 98.8146L94.5513 101.611L99.4645 104.259L104.034 106.707L108.238 108.915L112.068 110.856L115.524 112.508L118.611 113.857L121.339 114.89L123.72 115.601L125.766 115.981L127.492 116.025L128.909 115.726L130.031 115.077L130.868 114.069L131.431 112.694L131.73 110.94L131.774 108.796L131.572 106.251L131.134 103.294L130.47 99.9159L129.595 96.1096L128.525 91.8743L127.281 87.2163L125.889 82.153L124.386 76.7161L122.814 70.9558L121.227 64.9448L119.692 58.7819L118.282 52.5942L117.083 46.5368L116.184 40.7895L115.674 35.5485L115.634 31.0144L116.132 27.3757L117.209 24.7905L118.879 23.3693L121.121 23.1623L123.885 24.1532L127.094 26.2617L130.652 29.3539L134.453 33.2572L138.394 37.7789L142.378 42.7221L146.322 47.9004L150.158 53.1465L153.834 58.3179L157.316 63.2983L160.579 67.9963L163.614 72.3428L166.417 76.2869L168.992 79.7919L171.347 82.832L173.492 85.3879L175.44 87.4443L177.204 88.9872L178.798 90.0009L180.233 90.4659L181.523 90.3573L182.682 89.6598L183.733 88.3899L184.696 86.5626L185.591 84.188L186.436 81.2738L187.249 77.8271L188.048 73.8578L188.85 69.3808L189.676 64.4203L190.544 59.0135L191.473 53.215L192.484 47.1015L193.595 40.7761L194.824 34.3712L196.185 28.0496L197.687 22.0018L199.334 16.4396L201.12 11.5841L203.032 7.64938L205.046 4.82314L207.131 3.24695L209.251 3L211.364 4.08957L213.434 6.45035L215.426 9.95276L217.313 14.4184L219.076 19.6393L220.705 25.3977L222.199 31.4823L223.562 37.7014L224.806 43.8901L225.944 49.9133L226.994 55.6653L227.971 61.0678L228.895 66.0651L229.782 70.6207L230.649 74.7127L231.513 78.3301L232.387 81.4694L233.288 84.1325L234.227 86.324L235.219 88.05L236.278 89.3168L237.416 90.1303L238.646 90.4951L239.983 90.4146L241.44 89.8908L243.031 88.9245L244.772 87.5159L246.676 85.6651L248.759 83.3732L251.034 80.6437L253.515 77.4841L256.211 73.9084L259.131 69.9395L262.276 65.6128L265.642 60.9793L269.213 56.1096L272.963 51.0971L276.853 46.0603L280.826 41.1437L284.809 36.5151L288.714 32.3599L292.441 28.8709L295.883 26.2338L298.936 24.6105L301.505 24.1214L303.518 24.8311L304.932 26.7397L305.735 29.7817L305.949 33.8339L305.627 38.7285L304.842 44.2717L303.683 50.261L302.243 56.5014L300.617 62.8165L298.89 69.0558L297.14 75.0973L295.432 80.8471L293.822 86.2364L292.354 91.2178L291.064 95.7612L289.981 99.8493L289.13 103.474L288.532 106.633L288.205 109.326L288.171 111.556L288.449 113.323L289.064 114.622L290.043 115.449L291.402 115.811L293.142 115.739L295.263 115.256L297.771 114.383L300.671 113.139L303.968 111.543L307.666 109.615L311.762 107.381L316.247 104.871L321.101 102.126L326.291 99.1989L331.762 96.1567L337.443 93.0824L343.232 90.0762L349.007 87.2544L354.618 84.7458L359.898 82.6854L364.67 81.2056L368.759 80.4244L372.01 80.4331L374.304 81.2859L375.567 82.9921L375.783 85.5144L374.993 88.772L373.288 92.6504L370.798 97.013L367.679 101.715L364.096 106.614L360.212 111.581L356.176 116.505L352.119 121.297L348.149 125.889L344.355 130.233L340.805 134.296L337.548 138.062L334.622 141.522L332.05 144.679L329.851 147.539L328.034 150.112L326.608 152.412L325.575 154.452L324.94 156.246L324.706 157.809L324.877 159.155L325.458 160.297L326.455 161.247L327.876 162.017L329.728 162.62L332.021 163.065L334.764 163.367L337.965 163.535L341.63 163.585L345.758 163.531L350.344 163.391L355.371 163.186L360.81 162.94L366.613 162.682L372.709 162.447L379.004 162.272L385.372 162.202L391.657 162.283L397.678 162.564L403.229 163.089L408.097 163.899L412.073 165.024L414.971 166.478L416.654 168.259L417.039 170.346L416.117 172.701L413.949 175.272L410.66 177.998L406.422 180.813L401.439 183.657L395.926 186.474L390.09 189.219L384.123 191.856L378.19 194.363L372.427 196.727L366.943 198.94L361.818 201.006L357.113 202.931L352.87 204.725L349.119 206.4L345.879 207.971L343.163 209.453L340.984 210.861L339.352 212.212L338.28 213.523L337.788 214.81L337.757 215.217Z" stroke="#3F20FF" stroke-width="4"/>
</svg>
